<mxfile host="Electron" agent="Mozilla/5.0 (Windows NT 10.0; Win64; x64) AppleWebKit/537.36 (KHTML, like Gecko) draw.io/27.0.5 Chrome/134.0.6998.205 Electron/35.3.0 Safari/537.36" version="27.0.5">
  <diagram name="Page-1" id="e56a1550-8fbb-45ad-956c-1786394a9013">
    <mxGraphModel dx="1239" dy="695" grid="1" gridSize="10" guides="1" tooltips="1" connect="1" arrows="1" fold="1" page="1" pageScale="1" pageWidth="1100" pageHeight="850" background="none" math="0" shadow="0">
      <root>
        <mxCell id="0" />
        <mxCell id="1" parent="0" />
        <mxCell id="6jOaZCHhb_grgTxYYWfn-1" value="&lt;b&gt;Product&lt;/b&gt;" style="rounded=0;whiteSpace=wrap;html=1;" parent="1" vertex="1">
          <mxGeometry x="80" y="40" width="80" height="40" as="geometry" />
        </mxCell>
        <mxCell id="6jOaZCHhb_grgTxYYWfn-2" value="ProductName" style="rounded=0;whiteSpace=wrap;html=1;fillColor=light-dark(#99FF99,#000000);" parent="1" vertex="1">
          <mxGeometry x="160" y="80" width="80" height="40" as="geometry" />
        </mxCell>
        <mxCell id="6jOaZCHhb_grgTxYYWfn-3" style="edgeStyle=orthogonalEdgeStyle;rounded=0;orthogonalLoop=1;jettySize=auto;html=1;exitX=0.25;exitY=1;exitDx=0;exitDy=0;" parent="1" source="6jOaZCHhb_grgTxYYWfn-5" target="6jOaZCHhb_grgTxYYWfn-47" edge="1">
          <mxGeometry relative="1" as="geometry">
            <Array as="points">
              <mxPoint x="100" y="150" />
              <mxPoint x="440" y="150" />
            </Array>
          </mxGeometry>
        </mxCell>
        <mxCell id="6jOaZCHhb_grgTxYYWfn-4" style="edgeStyle=orthogonalEdgeStyle;rounded=0;orthogonalLoop=1;jettySize=auto;html=1;exitX=0.75;exitY=1;exitDx=0;exitDy=0;entryX=1;entryY=0.75;entryDx=0;entryDy=0;" parent="1" source="6jOaZCHhb_grgTxYYWfn-5" target="6jOaZCHhb_grgTxYYWfn-50" edge="1">
          <mxGeometry relative="1" as="geometry">
            <Array as="points">
              <mxPoint x="140" y="140" />
              <mxPoint x="590" y="140" />
              <mxPoint x="590" y="1070" />
            </Array>
          </mxGeometry>
        </mxCell>
        <mxCell id="6jOaZCHhb_grgTxYYWfn-5" value="&lt;u&gt;ProductID&lt;/u&gt;" style="rounded=0;whiteSpace=wrap;html=1;fillColor=light-dark(#FF6666,#000000);" parent="1" vertex="1">
          <mxGeometry x="80" y="80" width="80" height="40" as="geometry" />
        </mxCell>
        <mxCell id="6jOaZCHhb_grgTxYYWfn-6" value="Brand" style="rounded=0;whiteSpace=wrap;html=1;fillColor=light-dark(#99FF99,#000000);" parent="1" vertex="1">
          <mxGeometry x="240" y="80" width="80" height="40" as="geometry" />
        </mxCell>
        <mxCell id="6jOaZCHhb_grgTxYYWfn-7" value="Description" style="rounded=0;whiteSpace=wrap;html=1;fillColor=light-dark(#99FF99,#000000);" parent="1" vertex="1">
          <mxGeometry x="320" y="80" width="80" height="40" as="geometry" />
        </mxCell>
        <mxCell id="6jOaZCHhb_grgTxYYWfn-8" value="ImageURL" style="rounded=0;whiteSpace=wrap;html=1;fillColor=light-dark(#99FF99,#000000);" parent="1" vertex="1">
          <mxGeometry x="400" y="80" width="80" height="40" as="geometry" />
        </mxCell>
        <mxCell id="6jOaZCHhb_grgTxYYWfn-9" value="&lt;b&gt;Category&lt;/b&gt;" style="rounded=0;whiteSpace=wrap;html=1;" parent="1" vertex="1">
          <mxGeometry x="80" y="160" width="80" height="40" as="geometry" />
        </mxCell>
        <mxCell id="6jOaZCHhb_grgTxYYWfn-10" value="" style="rounded=0;whiteSpace=wrap;html=1;" parent="1" vertex="1">
          <mxGeometry x="80" y="200" width="160" height="40" as="geometry" />
        </mxCell>
        <mxCell id="6jOaZCHhb_grgTxYYWfn-11" value="&lt;u&gt;CategoryID&lt;/u&gt;" style="rounded=0;whiteSpace=wrap;html=1;fillColor=light-dark(#FF6666,#000000);" parent="1" vertex="1">
          <mxGeometry x="80" y="200" width="80" height="40" as="geometry" />
        </mxCell>
        <mxCell id="6jOaZCHhb_grgTxYYWfn-12" value="&lt;b&gt;Review&lt;/b&gt;" style="rounded=0;whiteSpace=wrap;html=1;" parent="1" vertex="1">
          <mxGeometry x="80" y="400" width="80" height="40" as="geometry" />
        </mxCell>
        <mxCell id="6jOaZCHhb_grgTxYYWfn-13" value="" style="rounded=0;whiteSpace=wrap;html=1;" parent="1" vertex="1">
          <mxGeometry x="80" y="440" width="320" height="40" as="geometry" />
        </mxCell>
        <mxCell id="6jOaZCHhb_grgTxYYWfn-14" value="Date" style="rounded=0;whiteSpace=wrap;html=1;fillColor=light-dark(#99FF99,#000000);" parent="1" vertex="1">
          <mxGeometry x="160" y="440" width="80" height="40" as="geometry" />
        </mxCell>
        <mxCell id="6jOaZCHhb_grgTxYYWfn-15" style="edgeStyle=orthogonalEdgeStyle;rounded=0;orthogonalLoop=1;jettySize=auto;html=1;entryX=0;entryY=0.75;entryDx=0;entryDy=0;" parent="1" source="6jOaZCHhb_grgTxYYWfn-16" target="6jOaZCHhb_grgTxYYWfn-44" edge="1">
          <mxGeometry relative="1" as="geometry">
            <Array as="points">
              <mxPoint x="60" y="460" />
              <mxPoint x="60" y="590" />
            </Array>
          </mxGeometry>
        </mxCell>
        <mxCell id="6jOaZCHhb_grgTxYYWfn-16" value="&lt;u&gt;ReviewID&lt;/u&gt;" style="rounded=0;whiteSpace=wrap;html=1;fillColor=light-dark(#FF6666,#000000);" parent="1" vertex="1">
          <mxGeometry x="80" y="440" width="80" height="40" as="geometry" />
        </mxCell>
        <mxCell id="6jOaZCHhb_grgTxYYWfn-17" value="Rating" style="rounded=0;whiteSpace=wrap;html=1;fillColor=light-dark(#99FF99,#000000);" parent="1" vertex="1">
          <mxGeometry x="240" y="440" width="80" height="40" as="geometry" />
        </mxCell>
        <mxCell id="6jOaZCHhb_grgTxYYWfn-18" value="Comment" style="rounded=0;whiteSpace=wrap;html=1;fillColor=light-dark(#99FF99,#000000);" parent="1" vertex="1">
          <mxGeometry x="320" y="440" width="80" height="40" as="geometry" />
        </mxCell>
        <mxCell id="6jOaZCHhb_grgTxYYWfn-19" value="&lt;b&gt;Listing&lt;/b&gt;" style="rounded=0;whiteSpace=wrap;html=1;" parent="1" vertex="1">
          <mxGeometry x="80" y="1000" width="80" height="40" as="geometry" />
        </mxCell>
        <mxCell id="6jOaZCHhb_grgTxYYWfn-20" value="" style="rounded=0;whiteSpace=wrap;html=1;" parent="1" vertex="1">
          <mxGeometry x="80" y="1040" width="240" height="40" as="geometry" />
        </mxCell>
        <mxCell id="6jOaZCHhb_grgTxYYWfn-21" value="Date" style="rounded=0;whiteSpace=wrap;html=1;fillColor=light-dark(#99FF99,#000000);" parent="1" vertex="1">
          <mxGeometry x="160" y="1040" width="80" height="40" as="geometry" />
        </mxCell>
        <mxCell id="6jOaZCHhb_grgTxYYWfn-22" value="&lt;u&gt;ListingID&lt;/u&gt;" style="rounded=0;whiteSpace=wrap;html=1;fillColor=light-dark(#FF6666,#000000);" parent="1" vertex="1">
          <mxGeometry x="80" y="1040" width="80" height="40" as="geometry" />
        </mxCell>
        <mxCell id="6jOaZCHhb_grgTxYYWfn-23" value="Price" style="rounded=0;whiteSpace=wrap;html=1;fillColor=light-dark(#99FF99,#000000);" parent="1" vertex="1">
          <mxGeometry x="240" y="1040" width="80" height="40" as="geometry" />
        </mxCell>
        <mxCell id="6jOaZCHhb_grgTxYYWfn-24" value="&lt;b&gt;Retailer&lt;/b&gt;" style="rounded=0;whiteSpace=wrap;html=1;" parent="1" vertex="1">
          <mxGeometry x="80" y="1120" width="80" height="40" as="geometry" />
        </mxCell>
        <mxCell id="6jOaZCHhb_grgTxYYWfn-25" value="" style="rounded=0;whiteSpace=wrap;html=1;" parent="1" vertex="1">
          <mxGeometry x="80" y="1160" width="160" height="40" as="geometry" />
        </mxCell>
        <mxCell id="6jOaZCHhb_grgTxYYWfn-26" value="RetailerName" style="rounded=0;whiteSpace=wrap;html=1;fillColor=light-dark(#99FF99,#000000);" parent="1" vertex="1">
          <mxGeometry x="160" y="1160" width="80" height="40" as="geometry" />
        </mxCell>
        <mxCell id="6jOaZCHhb_grgTxYYWfn-27" value="&lt;u&gt;RetailerID&lt;/u&gt;" style="rounded=0;whiteSpace=wrap;html=1;fillColor=light-dark(#FF6666,#000000);" parent="1" vertex="1">
          <mxGeometry x="80" y="1160" width="80" height="40" as="geometry" />
        </mxCell>
        <mxCell id="6jOaZCHhb_grgTxYYWfn-29" value="CategoryName" style="rounded=0;whiteSpace=wrap;html=1;fillColor=light-dark(#99FF99,#000000);" parent="1" vertex="1">
          <mxGeometry x="160" y="200" width="80" height="40" as="geometry" />
        </mxCell>
        <mxCell id="6jOaZCHhb_grgTxYYWfn-30" value="RetailerURL" style="rounded=0;whiteSpace=wrap;html=1;fillColor=light-dark(#99FF99,#000000);" parent="1" vertex="1">
          <mxGeometry x="240" y="1160" width="80" height="40" as="geometry" />
        </mxCell>
        <mxCell id="6jOaZCHhb_grgTxYYWfn-31" value="&lt;b&gt;User&lt;/b&gt;" style="rounded=0;whiteSpace=wrap;html=1;" parent="1" vertex="1">
          <mxGeometry x="80" y="640" width="80" height="40" as="geometry" />
        </mxCell>
        <mxCell id="6jOaZCHhb_grgTxYYWfn-32" value="" style="rounded=0;whiteSpace=wrap;html=1;" parent="1" vertex="1">
          <mxGeometry x="80" y="680" width="320" height="40" as="geometry" />
        </mxCell>
        <mxCell id="6jOaZCHhb_grgTxYYWfn-33" value="UserName" style="rounded=0;whiteSpace=wrap;html=1;fillColor=light-dark(#99FF99,#000000);" parent="1" vertex="1">
          <mxGeometry x="160" y="680" width="80" height="40" as="geometry" />
        </mxCell>
        <mxCell id="6jOaZCHhb_grgTxYYWfn-34" value="&lt;u&gt;UserID&lt;/u&gt;" style="rounded=0;whiteSpace=wrap;html=1;fillColor=light-dark(#FF6666,#000000);" parent="1" vertex="1">
          <mxGeometry x="80" y="680" width="80" height="40" as="geometry" />
        </mxCell>
        <mxCell id="6jOaZCHhb_grgTxYYWfn-35" value="Email" style="rounded=0;whiteSpace=wrap;html=1;fillColor=light-dark(#99FF99,#000000);" parent="1" vertex="1">
          <mxGeometry x="240" y="680" width="80" height="40" as="geometry" />
        </mxCell>
        <mxCell id="6jOaZCHhb_grgTxYYWfn-36" value="Password" style="rounded=0;whiteSpace=wrap;html=1;fillColor=light-dark(#99FF99,#000000);" parent="1" vertex="1">
          <mxGeometry x="320" y="680" width="80" height="40" as="geometry" />
        </mxCell>
        <mxCell id="6jOaZCHhb_grgTxYYWfn-37" value="Role" style="rounded=0;whiteSpace=wrap;html=1;fillColor=light-dark(#99FF99,#000000);" parent="1" vertex="1">
          <mxGeometry x="400" y="680" width="80" height="40" as="geometry" />
        </mxCell>
        <mxCell id="6jOaZCHhb_grgTxYYWfn-38" value="Country" style="rounded=0;whiteSpace=wrap;html=1;fillColor=light-dark(#99FF99,#000000);" parent="1" vertex="1">
          <mxGeometry x="320" y="1160" width="80" height="40" as="geometry" />
        </mxCell>
        <mxCell id="6jOaZCHhb_grgTxYYWfn-39" value="City" style="rounded=0;whiteSpace=wrap;html=1;fillColor=light-dark(#99FF99,#000000);" parent="1" vertex="1">
          <mxGeometry x="400" y="1160" width="80" height="40" as="geometry" />
        </mxCell>
        <mxCell id="6jOaZCHhb_grgTxYYWfn-40" value="Street" style="rounded=0;whiteSpace=wrap;html=1;fillColor=light-dark(#99FF99,#000000);" parent="1" vertex="1">
          <mxGeometry x="480" y="1160" width="80" height="40" as="geometry" />
        </mxCell>
        <mxCell id="6jOaZCHhb_grgTxYYWfn-41" value="&lt;b&gt;Review Response&lt;/b&gt;" style="rounded=0;whiteSpace=wrap;html=1;" parent="1" vertex="1">
          <mxGeometry x="80" y="520" width="80" height="40" as="geometry" />
        </mxCell>
        <mxCell id="6jOaZCHhb_grgTxYYWfn-42" value="" style="rounded=0;whiteSpace=wrap;html=1;" parent="1" vertex="1">
          <mxGeometry x="80" y="560" width="320" height="40" as="geometry" />
        </mxCell>
        <mxCell id="6jOaZCHhb_grgTxYYWfn-43" value="Reply" style="rounded=0;whiteSpace=wrap;html=1;fillColor=light-dark(#99FF99,#000000);" parent="1" vertex="1">
          <mxGeometry x="240" y="560" width="80" height="40" as="geometry" />
        </mxCell>
        <mxCell id="6jOaZCHhb_grgTxYYWfn-44" value="&lt;u&gt;ReviewID&lt;/u&gt;" style="rounded=0;whiteSpace=wrap;html=1;fillColor=light-dark(#FF6666,#000000);" parent="1" vertex="1">
          <mxGeometry x="80" y="560" width="80" height="40" as="geometry" />
        </mxCell>
        <mxCell id="6jOaZCHhb_grgTxYYWfn-45" value="&lt;u&gt;Response Number&lt;/u&gt;" style="rounded=0;whiteSpace=wrap;html=1;fillColor=light-dark(#FF6666,#000000);" parent="1" vertex="1">
          <mxGeometry x="160" y="560" width="80" height="40" as="geometry" />
        </mxCell>
        <mxCell id="6jOaZCHhb_grgTxYYWfn-46" value="Responder Name" style="rounded=0;whiteSpace=wrap;html=1;fillColor=light-dark(#99FF99,#000000);" parent="1" vertex="1">
          <mxGeometry x="320" y="560" width="80" height="40" as="geometry" />
        </mxCell>
        <mxCell id="6jOaZCHhb_grgTxYYWfn-47" value="ProductID" style="rounded=0;whiteSpace=wrap;html=1;fillColor=light-dark(#99FFFF,#000000);" parent="1" vertex="1">
          <mxGeometry x="400" y="440" width="80" height="40" as="geometry" />
        </mxCell>
        <mxCell id="6jOaZCHhb_grgTxYYWfn-48" value="RetailerID" style="rounded=0;whiteSpace=wrap;html=1;fillColor=light-dark(#99FFFF,#000000);" parent="1" vertex="1">
          <mxGeometry x="320" y="1040" width="80" height="40" as="geometry" />
        </mxCell>
        <mxCell id="6jOaZCHhb_grgTxYYWfn-49" style="edgeStyle=orthogonalEdgeStyle;rounded=0;orthogonalLoop=1;jettySize=auto;html=1;entryX=0.379;entryY=0.992;entryDx=0;entryDy=0;entryPerimeter=0;" parent="1" source="6jOaZCHhb_grgTxYYWfn-27" target="6jOaZCHhb_grgTxYYWfn-48" edge="1">
          <mxGeometry relative="1" as="geometry">
            <Array as="points">
              <mxPoint x="50" y="1180" />
              <mxPoint x="50" y="1100" />
              <mxPoint x="350" y="1100" />
            </Array>
          </mxGeometry>
        </mxCell>
        <mxCell id="6jOaZCHhb_grgTxYYWfn-50" value="ProductID" style="rounded=0;whiteSpace=wrap;html=1;fillColor=light-dark(#99FFFF,#000000);" parent="1" vertex="1">
          <mxGeometry x="400" y="1040" width="80" height="40" as="geometry" />
        </mxCell>
        <mxCell id="6jOaZCHhb_grgTxYYWfn-51" value="&lt;b&gt;Product Category&lt;/b&gt;" style="rounded=0;whiteSpace=wrap;html=1;" parent="1" vertex="1">
          <mxGeometry x="80" y="280" width="80" height="40" as="geometry" />
        </mxCell>
        <mxCell id="6jOaZCHhb_grgTxYYWfn-52" value="" style="rounded=0;whiteSpace=wrap;html=1;" parent="1" vertex="1">
          <mxGeometry x="80" y="320" width="160" height="40" as="geometry" />
        </mxCell>
        <mxCell id="6jOaZCHhb_grgTxYYWfn-53" value="&lt;u&gt;CategoryID&lt;/u&gt;" style="rounded=0;whiteSpace=wrap;html=1;fillColor=light-dark(#FF6666,#000000);" parent="1" vertex="1">
          <mxGeometry x="160" y="320" width="80" height="40" as="geometry" />
        </mxCell>
        <mxCell id="6jOaZCHhb_grgTxYYWfn-54" value="&lt;u&gt;ProductID&lt;/u&gt;" style="rounded=0;whiteSpace=wrap;html=1;fillColor=light-dark(#FF6666,#000000);" parent="1" vertex="1">
          <mxGeometry x="80" y="320" width="80" height="40" as="geometry" />
        </mxCell>
        <mxCell id="6jOaZCHhb_grgTxYYWfn-55" style="edgeStyle=orthogonalEdgeStyle;rounded=0;orthogonalLoop=1;jettySize=auto;html=1;exitX=0.5;exitY=1;exitDx=0;exitDy=0;entryX=0;entryY=0.75;entryDx=0;entryDy=0;" parent="1" source="6jOaZCHhb_grgTxYYWfn-54" target="6jOaZCHhb_grgTxYYWfn-5" edge="1">
          <mxGeometry relative="1" as="geometry">
            <Array as="points">
              <mxPoint x="80" y="360" />
              <mxPoint x="80" y="340" />
              <mxPoint x="40" y="340" />
              <mxPoint x="40" y="110" />
            </Array>
            <mxPoint x="360" y="170" as="sourcePoint" />
            <mxPoint x="700" y="490" as="targetPoint" />
          </mxGeometry>
        </mxCell>
        <mxCell id="6jOaZCHhb_grgTxYYWfn-56" style="edgeStyle=orthogonalEdgeStyle;rounded=0;orthogonalLoop=1;jettySize=auto;html=1;exitX=0.5;exitY=0;exitDx=0;exitDy=0;entryX=0.671;entryY=1.092;entryDx=0;entryDy=0;entryPerimeter=0;" parent="1" source="6jOaZCHhb_grgTxYYWfn-53" target="6jOaZCHhb_grgTxYYWfn-11" edge="1">
          <mxGeometry relative="1" as="geometry">
            <Array as="points">
              <mxPoint x="200" y="270" />
              <mxPoint x="134" y="270" />
            </Array>
            <mxPoint x="420" y="430" as="sourcePoint" />
            <mxPoint x="380" y="180" as="targetPoint" />
          </mxGeometry>
        </mxCell>
        <mxCell id="6jOaZCHhb_grgTxYYWfn-57" value="&lt;b&gt;Customer&lt;/b&gt;" style="rounded=0;whiteSpace=wrap;html=1;" parent="1" vertex="1">
          <mxGeometry x="80" y="760" width="80" height="40" as="geometry" />
        </mxCell>
        <mxCell id="6jOaZCHhb_grgTxYYWfn-60" value="&lt;u&gt;UserID&lt;/u&gt;" style="rounded=0;whiteSpace=wrap;html=1;fillColor=light-dark(#FF6666,#000000);" parent="1" vertex="1">
          <mxGeometry x="80" y="800" width="80" height="40" as="geometry" />
        </mxCell>
        <mxCell id="6jOaZCHhb_grgTxYYWfn-61" value="&lt;b&gt;Admin&lt;/b&gt;" style="rounded=0;whiteSpace=wrap;html=1;" parent="1" vertex="1">
          <mxGeometry x="80" y="880" width="80" height="40" as="geometry" />
        </mxCell>
        <mxCell id="6jOaZCHhb_grgTxYYWfn-62" value="" style="rounded=0;whiteSpace=wrap;html=1;" parent="1" vertex="1">
          <mxGeometry x="80" y="920" width="160" height="40" as="geometry" />
        </mxCell>
        <mxCell id="6jOaZCHhb_grgTxYYWfn-63" value="AccessLevel" style="rounded=0;whiteSpace=wrap;html=1;fillColor=light-dark(#99FF99,#000000);" parent="1" vertex="1">
          <mxGeometry x="160" y="920" width="80" height="40" as="geometry" />
        </mxCell>
        <mxCell id="6jOaZCHhb_grgTxYYWfn-64" value="&lt;u&gt;UserID&lt;/u&gt;" style="rounded=0;whiteSpace=wrap;html=1;fillColor=light-dark(#FF6666,#000000);" parent="1" vertex="1">
          <mxGeometry x="80" y="920" width="80" height="40" as="geometry" />
        </mxCell>
        <mxCell id="6jOaZCHhb_grgTxYYWfn-65" style="edgeStyle=orthogonalEdgeStyle;rounded=0;orthogonalLoop=1;jettySize=auto;html=1;exitX=0;exitY=0.75;exitDx=0;exitDy=0;entryX=0;entryY=0.75;entryDx=0;entryDy=0;" parent="1" source="6jOaZCHhb_grgTxYYWfn-60" target="6jOaZCHhb_grgTxYYWfn-34" edge="1">
          <mxGeometry relative="1" as="geometry">
            <Array as="points">
              <mxPoint x="66" y="830" />
              <mxPoint x="66" y="710" />
            </Array>
            <mxPoint x="66" y="826" as="sourcePoint" />
            <mxPoint y="750" as="targetPoint" />
          </mxGeometry>
        </mxCell>
        <mxCell id="6jOaZCHhb_grgTxYYWfn-66" style="edgeStyle=orthogonalEdgeStyle;rounded=0;orthogonalLoop=1;jettySize=auto;html=1;exitX=0;exitY=0.5;exitDx=0;exitDy=0;entryX=0;entryY=0.25;entryDx=0;entryDy=0;" parent="1" source="6jOaZCHhb_grgTxYYWfn-64" target="6jOaZCHhb_grgTxYYWfn-34" edge="1">
          <mxGeometry relative="1" as="geometry">
            <Array as="points">
              <mxPoint x="40" y="940" />
              <mxPoint x="40" y="690" />
            </Array>
            <mxPoint x="54" y="940" as="sourcePoint" />
            <mxPoint x="70" y="690" as="targetPoint" />
          </mxGeometry>
        </mxCell>
        <mxCell id="6jOaZCHhb_grgTxYYWfn-67" value="UserID" style="rounded=0;whiteSpace=wrap;html=1;fillColor=light-dark(#99FFFF,#000000);" parent="1" vertex="1">
          <mxGeometry x="480" y="440" width="80" height="40" as="geometry" />
        </mxCell>
        <mxCell id="6jOaZCHhb_grgTxYYWfn-69" style="edgeStyle=orthogonalEdgeStyle;rounded=0;orthogonalLoop=1;jettySize=auto;html=1;exitX=0.75;exitY=1;exitDx=0;exitDy=0;entryX=0.75;entryY=1;entryDx=0;entryDy=0;" parent="1" source="6jOaZCHhb_grgTxYYWfn-60" target="6jOaZCHhb_grgTxYYWfn-67" edge="1">
          <mxGeometry relative="1" as="geometry">
            <Array as="points">
              <mxPoint x="140" y="860" />
              <mxPoint x="540" y="860" />
            </Array>
            <mxPoint x="344" y="890" as="sourcePoint" />
            <mxPoint x="344" y="770" as="targetPoint" />
          </mxGeometry>
        </mxCell>
      </root>
    </mxGraphModel>
  </diagram>
</mxfile>
